<?xml version="1.0" encoding="UTF-8" standalone="no"?>
<!-- Created with Inkscape (http://www.inkscape.org/) -->

<svg
   width="512.00006"
   height="512.00006"
   viewBox="0 0 135.46668 135.46668"
   version="1.1"
   id="svg5"
   xml:space="preserve"
   sodipodi:docname="icon-light.svg"
   inkscape:version="1.2.2 (b0a8486541, 2022-12-01)"
   inkscape:export-filename="icon.png"
   inkscape:export-xdpi="109.47681"
   inkscape:export-ydpi="109.47681"
   xmlns:inkscape="http://www.inkscape.org/namespaces/inkscape"
   xmlns:sodipodi="http://sodipodi.sourceforge.net/DTD/sodipodi-0.dtd"
   xmlns="http://www.w3.org/2000/svg"
   xmlns:svg="http://www.w3.org/2000/svg"><sodipodi:namedview
     id="namedview7"
     pagecolor="#ffffff"
     bordercolor="#999999"
     borderopacity="1"
     inkscape:showpageshadow="0"
     inkscape:pageopacity="0"
     inkscape:pagecheckerboard="0"
     inkscape:deskcolor="#d1d1d1"
     inkscape:document-units="mm"
     showgrid="true"
     inkscape:zoom="0.50000001"
     inkscape:cx="999.99997"
     inkscape:cy="209.99999"
     inkscape:window-width="2560"
     inkscape:window-height="1371"
     inkscape:window-x="0"
     inkscape:window-y="0"
     inkscape:window-maximized="1"
     inkscape:current-layer="layer1"
     inkscape:lockguides="true"><inkscape:grid
       type="xygrid"
       id="grid365"
       spacingx="3.96875"
       spacingy="3.96875"
       originx="-35.718751"
       originy="-79.374985" /></sodipodi:namedview><defs
     id="defs2" /><g
     inkscape:label="Layer 1"
     inkscape:groupmode="layer"
     id="layer1"
     transform="translate(-35.718758,-79.375)"><g
       id="g16487"
       transform="matrix(0.9752381,0,0,0.9752381,0.88446447,1.9654762)"><circle
         style="font-variation-settings:normal;opacity:1;vector-effect:none;fill:#ffffff;fill-opacity:1;stroke-width:0.0158022;stroke-linecap:butt;stroke-linejoin:miter;stroke-miterlimit:4;stroke-dasharray:none;stroke-dashoffset:0;stroke-opacity:1;-inkscape-stroke:none;stop-color:#000000;stop-opacity:1"
         id="path15911"
         cx="105.17188"
         cy="148.82812"
         r="69.453125" /><path
         d="m 142.97955,137.08927 c 1.86416,0 3.37499,-1.51083 3.37499,-3.375 0,-1.86416 -1.51084,-3.375 -3.37499,-3.375 -1.86419,0 -3.37502,1.51084 -3.37502,3.375 0,1.86417 1.51085,3.375 3.37502,3.375 z"
         id="path5829"
         style="fill:#dcdcdc;fill-opacity:1;stroke-width:0.0131836" /><path
         d="m 142.97955,166.66072 c 1.86416,0 3.37499,-1.51084 3.37499,-3.375 0,-1.86417 -1.51084,-3.37501 -3.37499,-3.37501 -1.86419,0 -3.37502,1.51084 -3.37502,3.37501 0,1.86416 1.51085,3.375 3.37502,3.375 z"
         id="path5841"
         style="fill:#dcdcdc;fill-opacity:1;stroke-width:0.0131836" /><path
         d="m 133.69869,137.08927 c 1.86416,0 3.37499,-1.51083 3.37499,-3.375 0,-1.86416 -1.51084,-3.375 -3.37499,-3.375 -1.86418,0 -3.37502,1.51084 -3.37502,3.375 0,1.86417 1.51085,3.375 3.37502,3.375 z"
         id="path6587"
         style="fill:#dcdcdc;fill-opacity:1;stroke-width:0.0131836" /><path
         d="m 133.69869,166.66072 c 1.86416,0 3.37499,-1.51084 3.37499,-3.375 0,-1.86417 -1.51084,-3.37501 -3.37499,-3.37501 -1.86418,0 -3.37502,1.51084 -3.37502,3.37501 0,1.86416 1.51085,3.375 3.37502,3.375 z"
         id="path6589"
         style="fill:#dcdcdc;fill-opacity:1;stroke-width:0.0131836" /><path
         d="m 133.69869,156.80357 c 1.86416,0 3.37499,-1.51084 3.37499,-3.375 0,-1.86416 -1.51084,-3.375 -3.37499,-3.375 -1.86418,0 -3.37502,1.51084 -3.37502,3.375 0,1.86416 1.51085,3.375 3.37502,3.375 z"
         id="path8098"
         style="fill:#dcdcdc;fill-opacity:1;stroke-width:0.0131836" /><path
         d="m 133.69869,146.94643 c 1.86416,0 3.37499,-1.51084 3.37499,-3.37501 0,-1.86416 -1.51084,-3.375 -3.37499,-3.375 -1.86418,0 -3.37502,1.51084 -3.37502,3.375 0,1.86417 1.51085,3.37501 3.37502,3.37501 z"
         id="path8102"
         style="fill:#dcdcdc;fill-opacity:1;stroke-width:0.0131836" /><path
         d="m 133.69869,176.51787 c 1.86416,0 3.37499,-1.51084 3.37499,-3.375 0,-1.86416 -1.51084,-3.375 -3.37499,-3.375 -1.86418,0 -3.37502,1.51084 -3.37502,3.375 0,1.86416 1.51085,3.375 3.37502,3.375 z"
         id="path9558"
         style="fill:#dcdcdc;fill-opacity:1;stroke-width:0.0131836" /><path
         d="m 133.69869,186.37503 c 1.86416,0 3.37499,-1.51085 3.37499,-3.37501 0,-1.86416 -1.51084,-3.375 -3.37499,-3.375 -1.86418,0 -3.37502,1.51084 -3.37502,3.375 0,1.86416 1.51085,3.37501 3.37502,3.37501 z"
         id="path9562"
         style="fill:#dcdcdc;fill-opacity:1;stroke-width:0.0131836" /><path
         d="m 133.69869,127.52008 c 1.86416,0 3.37499,-1.51084 3.37499,-3.375 0,-1.86417 -1.51084,-3.37501 -3.37499,-3.37501 -1.86418,0 -3.37502,1.51084 -3.37502,3.37501 0,1.86416 1.51085,3.375 3.37502,3.375 z"
         id="path9566"
         style="fill:#dcdcdc;fill-opacity:1;stroke-width:0.0131836" /><path
         d="m 133.69869,117.37498 c 1.86416,0 3.37499,-1.51084 3.37499,-3.375 0,-1.86416 -1.51084,-3.37501 -3.37499,-3.37501 -1.86418,0 -3.37502,1.51085 -3.37502,3.37501 0,1.86416 1.51085,3.375 3.37502,3.375 z"
         id="path9570"
         style="fill:#dcdcdc;fill-opacity:1;stroke-width:0.0131836" /><path
         d="m 75.727037,137.08927 c 1.864162,0 3.374996,-1.51083 3.374996,-3.375 0,-1.86416 -1.510842,-3.375 -3.374996,-3.375 -1.864185,0 -3.375019,1.51084 -3.375019,3.375 0,1.86417 1.510849,3.375 3.375019,3.375 z"
         id="path10338"
         style="fill:#dcdcdc;fill-opacity:1;stroke-width:0.0131836" /><path
         d="m 75.727037,166.66072 c 1.864162,0 3.374996,-1.51084 3.374996,-3.375 0,-1.86417 -1.510842,-3.37501 -3.374996,-3.37501 -1.864185,0 -3.375019,1.51084 -3.375019,3.37501 0,1.86416 1.510849,3.375 3.375019,3.375 z"
         id="path10340"
         style="fill:#dcdcdc;fill-opacity:1;stroke-width:0.0131836" /><path
         d="m 66.446177,137.08927 c 1.864162,0 3.374996,-1.51083 3.374996,-3.375 0,-1.86416 -1.510842,-3.375 -3.374996,-3.375 -1.864177,0 -3.375011,1.51084 -3.375011,3.375 0,1.86417 1.510849,3.375 3.375011,3.375 z"
         id="path10342"
         style="fill:#dcdcdc;fill-opacity:1;stroke-width:0.0131836" /><path
         d="m 66.446177,166.66072 c 1.864162,0 3.374996,-1.51084 3.374996,-3.375 0,-1.86417 -1.510842,-3.37501 -3.374996,-3.37501 -1.864177,0 -3.375011,1.51084 -3.375011,3.37501 0,1.86416 1.510849,3.375 3.375011,3.375 z"
         id="path10344"
         style="fill:#dcdcdc;fill-opacity:1;stroke-width:0.0131836" /><path
         d="m 75.727037,156.80357 c 1.864162,0 3.374996,-1.51084 3.374996,-3.375 0,-1.86416 -1.510842,-3.375 -3.374996,-3.375 -1.864185,0 -3.375019,1.51084 -3.375019,3.375 0,1.86416 1.510849,3.375 3.375019,3.375 z"
         id="path10346"
         style="fill:#dcdcdc;fill-opacity:1;stroke-width:0.0131836" /><path
         d="m 75.727037,146.94643 c 1.864162,0 3.374996,-1.51084 3.374996,-3.37501 0,-1.86416 -1.510842,-3.375 -3.374996,-3.375 -1.864185,0 -3.375019,1.51084 -3.375019,3.375 0,1.86417 1.510849,3.37501 3.375019,3.37501 z"
         id="path10350"
         style="fill:#dcdcdc;fill-opacity:1;stroke-width:0.0131836" /><path
         d="m 75.727037,176.51787 c 1.864162,0 3.374996,-1.51084 3.374996,-3.375 0,-1.86416 -1.510842,-3.375 -3.374996,-3.375 -1.864185,0 -3.375019,1.51084 -3.375019,3.375 0,1.86416 1.510849,3.375 3.375019,3.375 z"
         id="path10354"
         style="fill:#dcdcdc;fill-opacity:1;stroke-width:0.0131836" /><path
         d="m 75.727037,186.37503 c 1.864162,0 3.374996,-1.51085 3.374996,-3.37501 0,-1.86416 -1.510842,-3.375 -3.374996,-3.375 -1.864185,0 -3.375019,1.51084 -3.375019,3.375 0,1.86416 1.510849,3.37501 3.375019,3.37501 z"
         id="path10358"
         style="fill:#dcdcdc;fill-opacity:1;stroke-width:0.0131836" /><path
         d="m 75.727037,127.52008 c 1.864162,0 3.374996,-1.51084 3.374996,-3.375 0,-1.86417 -1.510842,-3.37501 -3.374996,-3.37501 -1.864185,0 -3.375019,1.51084 -3.375019,3.37501 0,1.86416 1.510849,3.375 3.375019,3.375 z"
         id="path10362"
         style="fill:#dcdcdc;fill-opacity:1;stroke-width:0.0131836" /><path
         d="m 75.727037,117.37498 c 1.864162,0 3.374996,-1.51084 3.374996,-3.375 0,-1.86416 -1.510842,-3.37501 -3.374996,-3.37501 -1.864185,0 -3.375019,1.51085 -3.375019,3.37501 0,1.86416 1.510849,3.375 3.375019,3.375 z"
         id="path10366"
         style="fill:#dcdcdc;fill-opacity:1;stroke-width:0.0131836" /><path
         style="stroke-width:0.0288212"
         d="m 140.49554,148.49999 c 0,-1.55349 1.21337,-2.76685 2.76684,-2.76685 1.52752,0 2.76683,1.21336 2.76683,2.76685 0,1.52753 -1.23931,2.76685 -2.76683,2.76685 -1.55347,0 -2.76684,-1.23932 -2.76684,-2.76685 z m 10.14508,0 c 0,4.07532 -3.30291,7.37824 -7.37824,7.37824 -4.07533,0 -7.37826,-3.30292 -7.37826,-7.37824 0,-4.07534 3.30293,-7.37825 7.37826,-7.37825 4.07533,0 7.37824,3.30291 7.37824,7.37825 z m -7.37824,-5.99484 c -3.31157,0 -5.99483,2.68327 -5.99483,5.99484 0,3.31156 2.68326,5.99483 5.99483,5.99483 3.31156,0 5.99482,-2.68327 5.99482,-5.99483 0,-3.31157 -2.68326,-5.99484 -5.99482,-5.99484 z"
         id="path373" /><path
         d="m 150.35778,118.00324 c 0,4.07531 -3.30291,7.37824 -7.37824,7.37824 -4.07533,0 -7.37826,-3.30293 -7.37826,-7.37824 0,-4.07534 3.30293,-7.37826 7.37826,-7.37826 4.07533,0 7.37824,3.30292 7.37824,7.37826 z m -7.37824,-5.99484 c -3.31157,0 -5.99483,2.68326 -5.99483,5.99484 0,3.31154 2.68326,5.99482 5.99483,5.99482 3.31156,0 5.99482,-2.68328 5.99482,-5.99482 0,-3.31158 -2.68326,-5.99484 -5.99482,-5.99484 z"
         id="path375"
         style="stroke-width:0.0288213"
         sodipodi:nodetypes="ssssssssss" /><path
         d="m 140.21269,178.99677 c 0,-1.55349 1.21338,-2.76685 2.76685,-2.76685 1.52752,0 2.76683,1.21336 2.76683,2.76685 0,1.52752 -1.23931,2.76684 -2.76683,2.76684 -1.55347,0 -2.76685,-1.23931 -2.76685,-2.76684 z m 10.14509,0 c 0,4.07532 -3.30291,7.37824 -7.37824,7.37824 -4.07533,0 -7.37826,-3.30292 -7.37826,-7.37824 0,-4.07534 3.30293,-7.37827 7.37826,-7.37827 4.07533,0 7.37824,3.30292 7.37824,7.37827 z m -7.37824,-5.99484 c -3.31157,0 -5.99483,2.68326 -5.99483,5.99484 0,3.31155 2.68326,5.99481 5.99483,5.99481 3.31156,0 5.99482,-2.68326 5.99482,-5.99481 0,-3.31158 -2.68326,-5.99484 -5.99482,-5.99484 z"
         id="path377"
         style="stroke-width:0.0288212" /><path
         d="m 85.417805,117.37498 c 1.864162,0 3.375003,-1.51084 3.375003,-3.375 0,-1.86416 -1.510841,-3.37501 -3.375003,-3.37501 -1.864161,0 -3.375003,1.51085 -3.375003,3.37501 0,1.86416 1.510842,3.375 3.375003,3.375 z"
         id="path379"
         style="fill:#dcdcdc;fill-opacity:1;stroke-width:0.0131836" /><path
         d="m 95.167814,117.37498 c 1.864163,0 3.374998,-1.51084 3.374998,-3.375 0,-1.86416 -1.510836,-3.37501 -3.374998,-3.37501 -1.864162,0 -3.375003,1.51085 -3.375003,3.37501 0,1.86416 1.510841,3.375 3.375003,3.375 z"
         id="path388"
         style="fill:#dcdcdc;fill-opacity:1;stroke-width:0.0131836" /><path
         d="m 104.91782,117.37498 c 1.86416,0 3.375,-1.51084 3.375,-3.375 0,-1.86416 -1.51084,-3.37501 -3.375,-3.37501 -1.86416,0 -3.375,1.51085 -3.375,3.37501 0,1.86416 1.51084,3.375 3.375,3.375 z"
         id="path390"
         style="fill:#dcdcdc;fill-opacity:1;stroke-width:0.0131836" /><path
         d="m 114.66782,117.37498 c 1.86416,0 3.37501,-1.51084 3.37501,-3.375 0,-1.86416 -1.51085,-3.37501 -3.37501,-3.37501 -1.86416,0 -3.375,1.51085 -3.375,3.37501 0,1.86416 1.51084,3.375 3.375,3.375 z"
         id="path392"
         style="fill:#dcdcdc;fill-opacity:1;stroke-width:0.0131836" /><path
         d="m 124.41783,117.37498 c 1.86416,0 3.37499,-1.51084 3.37499,-3.375 0,-1.86416 -1.51084,-3.37501 -3.37499,-3.37501 -1.86417,0 -3.37501,1.51085 -3.37501,3.37501 0,1.86416 1.51084,3.375 3.37501,3.375 z"
         id="path394"
         style="fill:#dcdcdc;fill-opacity:1;stroke-width:0.0131836" /><path
         d="m 85.417805,127.23213 c 1.864162,0 3.375003,-1.51084 3.375003,-3.37501 0,-1.86416 -1.510841,-3.375 -3.375003,-3.375 -1.864161,0 -3.375003,1.51084 -3.375003,3.375 0,1.86417 1.510842,3.37501 3.375003,3.37501 z"
         id="path413"
         style="fill:#dcdcdc;fill-opacity:1;stroke-width:0.0131836" /><path
         d="m 95.167814,127.23213 c 1.864163,0 3.374998,-1.51084 3.374998,-3.37501 0,-1.86416 -1.510836,-3.375 -3.374998,-3.375 -1.864162,0 -3.375003,1.51084 -3.375003,3.375 0,1.86417 1.510841,3.37501 3.375003,3.37501 z"
         id="path415"
         style="fill:#dcdcdc;fill-opacity:1;stroke-width:0.0131836" /><path
         d="m 104.91782,127.23213 c 1.86416,0 3.375,-1.51084 3.375,-3.37501 0,-1.86416 -1.51084,-3.375 -3.375,-3.375 -1.86416,0 -3.375,1.51084 -3.375,3.375 0,1.86417 1.51084,3.37501 3.375,3.37501 z"
         id="path417"
         style="fill:#dcdcdc;fill-opacity:1;stroke-width:0.0131836" /><path
         d="m 114.66782,127.23213 c 1.86416,0 3.37501,-1.51084 3.37501,-3.37501 0,-1.86416 -1.51085,-3.375 -3.37501,-3.375 -1.86416,0 -3.375,1.51084 -3.375,3.375 0,1.86417 1.51084,3.37501 3.375,3.37501 z"
         id="path419"
         style="fill:#dcdcdc;fill-opacity:1;stroke-width:0.0131836" /><path
         d="m 124.41783,127.23213 c 1.86416,0 3.37499,-1.51084 3.37499,-3.37501 0,-1.86416 -1.51084,-3.375 -3.37499,-3.375 -1.86417,0 -3.37501,1.51084 -3.37501,3.375 0,1.86417 1.51084,3.37501 3.37501,3.37501 z"
         id="path421"
         style="fill:#dcdcdc;fill-opacity:1;stroke-width:0.0131836" /><path
         d="m 85.417805,137.08927 c 1.864162,0 3.375003,-1.51083 3.375003,-3.375 0,-1.86416 -1.510841,-3.375 -3.375003,-3.375 -1.864161,0 -3.375003,1.51084 -3.375003,3.375 0,1.86417 1.510842,3.375 3.375003,3.375 z"
         id="path425"
         style="fill:#dcdcdc;fill-opacity:1;stroke-width:0.0131836" /><path
         d="m 95.167814,137.08927 c 1.864163,0 3.374998,-1.51083 3.374998,-3.375 0,-1.86416 -1.510836,-3.375 -3.374998,-3.375 -1.864162,0 -3.375003,1.51084 -3.375003,3.375 0,1.86417 1.510841,3.375 3.375003,3.375 z"
         id="path427"
         style="fill:#dcdcdc;fill-opacity:1;stroke-width:0.0131836" /><path
         d="m 104.91782,137.08927 c 1.86416,0 3.375,-1.51083 3.375,-3.375 0,-1.86416 -1.51084,-3.375 -3.375,-3.375 -1.86416,0 -3.375,1.51084 -3.375,3.375 0,1.86417 1.51084,3.375 3.375,3.375 z"
         id="path429"
         style="fill:#dcdcdc;fill-opacity:1;stroke-width:0.0131836" /><path
         d="m 124.41783,137.08927 c 1.86416,0 3.37499,-1.51083 3.37499,-3.375 0,-1.86416 -1.51084,-3.375 -3.37499,-3.375 -1.86417,0 -3.37501,1.51084 -3.37501,3.375 0,1.86417 1.51084,3.375 3.37501,3.375 z"
         id="path433"
         style="fill:#dcdcdc;fill-opacity:1;stroke-width:0.0131836" /><path
         d="m 85.417805,146.94642 c 1.864162,0 3.375003,-1.51084 3.375003,-3.375 0,-1.86416 -1.510841,-3.375 -3.375003,-3.375 -1.864161,0 -3.375003,1.51084 -3.375003,3.375 0,1.86417 1.510842,3.375 3.375003,3.375 z"
         id="path437"
         style="fill:#dcdcdc;fill-opacity:1;stroke-width:0.0131836" /><path
         d="m 95.167814,146.94642 c 1.864163,0 3.374998,-1.51084 3.374998,-3.375 0,-1.86416 -1.510836,-3.375 -3.374998,-3.375 -1.864162,0 -3.375003,1.51084 -3.375003,3.375 0,1.86417 1.510841,3.375 3.375003,3.375 z"
         id="path439"
         style="fill:#dcdcdc;fill-opacity:1;stroke-width:0.0131836" /><path
         d="m 104.91782,146.94642 c 1.86416,0 3.375,-1.51084 3.375,-3.375 0,-1.86416 -1.51084,-3.375 -3.375,-3.375 -1.86416,0 -3.375,1.51084 -3.375,3.375 0,1.86417 1.51084,3.375 3.375,3.375 z"
         id="path441"
         style="fill:#dcdcdc;fill-opacity:1;stroke-width:0.0131836" /><path
         d="m 114.66782,146.94642 c 1.86416,0 3.37501,-1.51084 3.37501,-3.375 0,-1.86416 -1.51085,-3.375 -3.37501,-3.375 -1.86416,0 -3.375,1.51084 -3.375,3.375 0,1.86417 1.51084,3.375 3.375,3.375 z"
         id="path443"
         style="fill:#dcdcdc;fill-opacity:1;stroke-width:0.0131836" /><path
         d="m 124.41783,146.94642 c 1.86416,0 3.37499,-1.51084 3.37499,-3.375 0,-1.86416 -1.51084,-3.375 -3.37499,-3.375 -1.86417,0 -3.37501,1.51084 -3.37501,3.375 0,1.86417 1.51084,3.375 3.37501,3.375 z"
         id="path445"
         style="fill:#dcdcdc;fill-opacity:1;stroke-width:0.0131836" /><path
         d="m 85.417805,156.80357 c 1.864162,0 3.375003,-1.51085 3.375003,-3.37501 0,-1.86415 -1.510841,-3.37499 -3.375003,-3.37499 -1.864161,0 -3.375003,1.51084 -3.375003,3.37499 0,1.86416 1.510842,3.37501 3.375003,3.37501 z"
         id="path449"
         style="fill:#dcdcdc;fill-opacity:1;stroke-width:0.0131836" /><path
         d="m 95.167814,156.80357 c 1.864163,0 3.374998,-1.51085 3.374998,-3.37501 0,-1.86415 -1.510836,-3.37499 -3.374998,-3.37499 -1.864162,0 -3.375003,1.51084 -3.375003,3.37499 0,1.86416 1.510841,3.37501 3.375003,3.37501 z"
         id="path451"
         style="fill:#dcdcdc;fill-opacity:1;stroke-width:0.0131836" /><path
         d="m 104.91782,156.80357 c 1.86416,0 3.375,-1.51085 3.375,-3.37501 0,-1.86415 -1.51084,-3.37499 -3.375,-3.37499 -1.86416,0 -3.375,1.51084 -3.375,3.37499 0,1.86416 1.51084,3.37501 3.375,3.37501 z"
         id="path453"
         style="fill:#dcdcdc;fill-opacity:1;stroke-width:0.0131836" /><path
         d="m 114.66782,156.80357 c 1.86416,0 3.37501,-1.51085 3.37501,-3.37501 0,-1.86415 -1.51085,-3.37499 -3.37501,-3.37499 -1.86416,0 -3.375,1.51084 -3.375,3.37499 0,1.86416 1.51084,3.37501 3.375,3.37501 z"
         id="path455"
         style="fill:#dcdcdc;fill-opacity:1;stroke-width:0.0131836" /><path
         d="m 124.41783,156.80357 c 1.86416,0 3.37499,-1.51085 3.37499,-3.37501 0,-1.86415 -1.51084,-3.37499 -3.37499,-3.37499 -1.86417,0 -3.37501,1.51084 -3.37501,3.37499 0,1.86416 1.51084,3.37501 3.37501,3.37501 z"
         id="path457"
         style="fill:#dcdcdc;fill-opacity:1;stroke-width:0.0131836" /><path
         d="m 85.417805,166.66072 c 1.864162,0 3.375003,-1.51084 3.375003,-3.375 0,-1.86417 -1.510841,-3.37501 -3.375003,-3.37501 -1.864161,0 -3.375003,1.51084 -3.375003,3.37501 0,1.86416 1.510842,3.375 3.375003,3.375 z"
         id="path461"
         style="fill:#dcdcdc;fill-opacity:1;stroke-width:0.0131836" /><path
         d="m 104.91782,166.66072 c 1.86416,0 3.375,-1.51084 3.375,-3.375 0,-1.86417 -1.51084,-3.37501 -3.375,-3.37501 -1.86416,0 -3.375,1.51084 -3.375,3.37501 0,1.86416 1.51084,3.375 3.375,3.375 z"
         id="path465"
         style="fill:#dcdcdc;fill-opacity:1;stroke-width:0.0131836" /><path
         d="m 114.66782,166.66072 c 1.86416,0 3.37501,-1.51084 3.37501,-3.375 0,-1.86417 -1.51085,-3.37501 -3.37501,-3.37501 -1.86416,0 -3.375,1.51084 -3.375,3.37501 0,1.86416 1.51084,3.375 3.375,3.375 z"
         id="path467"
         style="fill:#dcdcdc;fill-opacity:1;stroke-width:0.0131836" /><path
         d="m 124.41783,166.66072 c 1.86416,0 3.37499,-1.51084 3.37499,-3.375 0,-1.86417 -1.51084,-3.37501 -3.37499,-3.37501 -1.86417,0 -3.37501,1.51084 -3.37501,3.37501 0,1.86416 1.51084,3.375 3.37501,3.375 z"
         id="path469"
         style="fill:#dcdcdc;fill-opacity:1;stroke-width:0.0131836" /><path
         d="m 85.417805,176.51787 c 1.864162,0 3.375003,-1.51085 3.375003,-3.37501 0,-1.86416 -1.510841,-3.37499 -3.375003,-3.37499 -1.864161,0 -3.375003,1.51083 -3.375003,3.37499 0,1.86416 1.510842,3.37501 3.375003,3.37501 z"
         id="path473"
         style="fill:#dcdcdc;fill-opacity:1;stroke-width:0.0131836" /><path
         d="m 95.167814,176.51787 c 1.864163,0 3.374998,-1.51085 3.374998,-3.37501 0,-1.86416 -1.510836,-3.37499 -3.374998,-3.37499 -1.864162,0 -3.375003,1.51083 -3.375003,3.37499 0,1.86416 1.510841,3.37501 3.375003,3.37501 z"
         id="path475"
         style="fill:#dcdcdc;fill-opacity:1;stroke-width:0.0131836" /><path
         d="m 104.91782,176.51787 c 1.86416,0 3.375,-1.51085 3.375,-3.37501 0,-1.86416 -1.51084,-3.37499 -3.375,-3.37499 -1.86416,0 -3.375,1.51083 -3.375,3.37499 0,1.86416 1.51084,3.37501 3.375,3.37501 z"
         id="path477"
         style="fill:#dcdcdc;fill-opacity:1;stroke-width:0.0131836" /><path
         d="m 114.66782,176.51787 c 1.86416,0 3.37501,-1.51085 3.37501,-3.37501 0,-1.86416 -1.51085,-3.37499 -3.37501,-3.37499 -1.86416,0 -3.375,1.51083 -3.375,3.37499 0,1.86416 1.51084,3.37501 3.375,3.37501 z"
         id="path479"
         style="fill:#dcdcdc;fill-opacity:1;stroke-width:0.0131836" /><path
         d="m 124.41783,176.51787 c 1.86416,0 3.37499,-1.51085 3.37499,-3.37501 0,-1.86416 -1.51084,-3.37499 -3.37499,-3.37499 -1.86417,0 -3.37501,1.51083 -3.37501,3.37499 0,1.86416 1.51084,3.37501 3.37501,3.37501 z"
         id="path481"
         style="fill:#dcdcdc;fill-opacity:1;stroke-width:0.0131836" /><path
         d="m 85.417805,186.37501 c 1.864162,0 3.375003,-1.51083 3.375003,-3.375 0,-1.86416 -1.510841,-3.37501 -3.375003,-3.37501 -1.864161,0 -3.375003,1.51085 -3.375003,3.37501 0,1.86417 1.510842,3.375 3.375003,3.375 z"
         id="path497"
         style="fill:#dcdcdc;fill-opacity:1;stroke-width:0.0131836" /><path
         d="m 95.167814,186.37501 c 1.864163,0 3.374998,-1.51083 3.374998,-3.375 0,-1.86416 -1.510836,-3.37501 -3.374998,-3.37501 -1.864162,0 -3.375003,1.51085 -3.375003,3.37501 0,1.86417 1.510841,3.375 3.375003,3.375 z"
         id="path499"
         style="fill:#dcdcdc;fill-opacity:1;stroke-width:0.0131836" /><path
         d="m 104.91782,186.37501 c 1.86416,0 3.375,-1.51083 3.375,-3.375 0,-1.86416 -1.51084,-3.37501 -3.375,-3.37501 -1.86416,0 -3.375,1.51085 -3.375,3.37501 0,1.86417 1.51084,3.375 3.375,3.375 z"
         id="path501"
         style="fill:#dcdcdc;fill-opacity:1;stroke-width:0.0131836" /><path
         d="m 114.66782,186.37501 c 1.86416,0 3.37501,-1.51083 3.37501,-3.375 0,-1.86416 -1.51085,-3.37501 -3.37501,-3.37501 -1.86416,0 -3.375,1.51085 -3.375,3.37501 0,1.86417 1.51084,3.375 3.375,3.375 z"
         id="path503"
         style="fill:#dcdcdc;fill-opacity:1;stroke-width:0.0131836" /><path
         d="m 124.41783,186.37501 c 1.86416,0 3.37499,-1.51083 3.37499,-3.375 0,-1.86416 -1.51084,-3.37501 -3.37499,-3.37501 -1.86417,0 -3.37501,1.51085 -3.37501,3.37501 0,1.86417 1.51084,3.375 3.37501,3.375 z"
         id="path505"
         style="fill:#dcdcdc;fill-opacity:1;stroke-width:0.0131836" /><path
         d="m 124.41783,117.37498 c 1.86416,0 3.37499,-1.51084 3.37499,-3.375 0,-1.86416 -1.51084,-3.37501 -3.37499,-3.37501 -1.86417,0 -3.37501,1.51085 -3.37501,3.37501 0,1.86416 1.51084,3.375 3.37501,3.375 z"
         id="path5825"
         style="fill:#dcdcdc;fill-opacity:1;stroke-width:0.0131836" /><path
         d="m 124.41783,127.23213 c 1.86416,0 3.37499,-1.51084 3.37499,-3.37501 0,-1.86416 -1.51084,-3.375 -3.37499,-3.375 -1.86417,0 -3.37501,1.51084 -3.37501,3.375 0,1.86417 1.51084,3.37501 3.37501,3.37501 z"
         id="path5827"
         style="fill:#dcdcdc;fill-opacity:1;stroke-width:0.0131836" /><path
         d="m 124.41783,146.94642 c 1.86416,0 3.37499,-1.51084 3.37499,-3.375 0,-1.86416 -1.51084,-3.375 -3.37499,-3.375 -1.86417,0 -3.37501,1.51084 -3.37501,3.375 0,1.86417 1.51084,3.375 3.37501,3.375 z"
         id="path5831"
         style="fill:#dcdcdc;fill-opacity:1;stroke-width:0.0131836" /><path
         d="m 124.41783,156.80357 c 1.86416,0 3.37499,-1.51085 3.37499,-3.37501 0,-1.86415 -1.51084,-3.37499 -3.37499,-3.37499 -1.86417,0 -3.37501,1.51084 -3.37501,3.37499 0,1.86416 1.51084,3.37501 3.37501,3.37501 z"
         id="path5833"
         style="fill:#dcdcdc;fill-opacity:1;stroke-width:0.0131836" /><path
         d="m 124.41783,166.66072 c 1.86416,0 3.37499,-1.51084 3.37499,-3.375 0,-1.86417 -1.51084,-3.37501 -3.37499,-3.37501 -1.86417,0 -3.37501,1.51084 -3.37501,3.37501 0,1.86416 1.51084,3.375 3.37501,3.375 z"
         id="path5835"
         style="fill:#dcdcdc;fill-opacity:1;stroke-width:0.0131836" /><path
         d="m 124.41783,176.51787 c 1.86416,0 3.37499,-1.51085 3.37499,-3.37501 0,-1.86416 -1.51084,-3.37499 -3.37499,-3.37499 -1.86417,0 -3.37501,1.51083 -3.37501,3.37499 0,1.86416 1.51084,3.37501 3.37501,3.37501 z"
         id="path5837"
         style="fill:#dcdcdc;fill-opacity:1;stroke-width:0.0131836" /><path
         d="m 124.41783,186.37501 c 1.86416,0 3.37499,-1.51083 3.37499,-3.375 0,-1.86416 -1.51084,-3.37501 -3.37499,-3.37501 -1.86417,0 -3.37501,1.51085 -3.37501,3.37501 0,1.86417 1.51084,3.375 3.37501,3.375 z"
         id="path5839"
         style="fill:#dcdcdc;fill-opacity:1;stroke-width:0.0131836" /><path
         style="fill:#4d4d4d;stroke-width:10.8596;stroke-dasharray:none"
         d="m 144.8004,120.08613 -28.46212,16.52691"
         id="path1095" /><g
         id="g4941"
         transform="matrix(0.76842242,0,0,0.76842242,36.240861,57.009698)"><g
           id="g4874"
           style="fill:#000000"><path
             d="m 101.98522,104.21296 c 2.42596,0 4.39212,-1.96615 4.39212,-4.392114 0,-2.425962 -1.96616,-4.392122 -4.39212,-4.392122 -2.425962,0 -4.39212,1.96616 -4.39212,4.392122 0,2.425964 1.966158,4.392114 4.39212,4.392114 z"
             id="path431"
             style="fill:#000000;stroke-width:0.0171567" /><path
             d="m 76.608539,142.69628 c 2.425961,0 4.392113,-1.96616 4.392113,-4.39212 0,-2.42596 -1.966153,-4.39212 -4.392113,-4.39212 -2.425959,0 -4.392119,1.96616 -4.392119,4.39212 0,2.42596 1.96616,4.39212 4.392119,4.39212 z"
             id="path463"
             style="fill:#000000;stroke-width:0.0171567" /><g
             aria-label="S"
             transform="scale(1.0310502,0.96988488)"
             id="text651"
             style="font-size:81.6329px;font-family:Overpass;-inkscape-font-specification:Overpass;fill:#000000;fill-opacity:1;stroke-width:0.212585"><path
               d="m 87.179101,152.31051 c 10.775543,0 18.775569,-5.9592 18.775569,-16.48984 0,-11.26534 -9.306153,-15.42862 -17.306177,-18.44904 -6.448998,-2.36735 -12.326567,-4.73471 -12.326567,-10.04084 0,-4.65308 3.67348,-7.51023 9.714315,-7.51023 5.63267,0 7.731988,2.05072 9.119747,5.23441 l 7.001982,-5.070013 c -4.160701,-5.999405 -6.57068,-6.776662 -15.631932,-6.776662 -11.102074,0 -17.551073,6.448999 -17.551073,14.122495 0,9.95921 8.73472,13.63269 16.734744,16.57147 6.693898,2.44899 12.897998,5.46941 12.897998,12.08167 0,6.28574 -4.408177,9.63268 -11.26534,9.63268 -6.285733,0 -6.809468,-0.33239 -9.356691,-5.29307 l -6.949984,5.18302 c 4.022394,4.71389 6.184196,6.80395 16.143409,6.80395 z"
               id="path854"
               sodipodi:nodetypes="sscssccsscssccs"
               style="fill:#000000;fill-opacity:1" /></g><path
             style="fill:#000000;stroke-width:14.732;stroke-dasharray:none"
             d="M 140.69241,82.501794 104.23618,103.59321 97.5931,99.820846 137.08919,76.249969 Z"
             id="path2571"
             sodipodi:nodetypes="ccccc" /><path
             style="fill:#000000;stroke-width:14.732;stroke-dasharray:none"
             d="m 37.714418,155.72636 36.45623,-21.09142 6.830004,3.66922 -39.683014,23.67402 z"
             id="path4751"
             sodipodi:nodetypes="ccccc" /></g><path
           d="m 135.30557,79.375011 c 0,-2.021656 1.57905,-3.600692 3.60068,-3.600692 1.98787,0 3.60067,1.579036 3.60067,3.600692 0,1.987871 -1.6128,3.600671 -3.60067,3.600671 -2.02163,0 -3.60068,-1.6128 -3.60068,-3.600671 z"
           style="stroke-width:0.0375071"
           id="path4884" /><path
           d="m 36.086819,158.75002 c 0,-2.02166 1.579047,-3.6007 3.60068,-3.6007 1.987875,0 3.600681,1.57903 3.600681,3.60069 0,1.98787 -1.612806,3.60067 -3.600681,3.60067 -2.021633,0 -3.60068,-1.6128 -3.60068,-3.60066 z"
           style="stroke-width:0.037507"
           id="path4912" /></g><path
         d="m 85.417805,186.37501 c 1.864162,0 3.375003,-1.51083 3.375003,-3.375 0,-1.86416 -1.510841,-3.37501 -3.375003,-3.37501 -1.864161,0 -3.375003,1.51085 -3.375003,3.37501 0,1.86417 1.510842,3.375 3.375003,3.375 z"
         id="path9572"
         style="fill:#dcdcdc;fill-opacity:1;stroke-width:0.0131836" /><path
         d="m 95.167814,186.37501 c 1.864163,0 3.374998,-1.51083 3.374998,-3.375 0,-1.86416 -1.510836,-3.37501 -3.374998,-3.37501 -1.864162,0 -3.375003,1.51085 -3.375003,3.37501 0,1.86417 1.510841,3.375 3.375003,3.375 z"
         id="path9574"
         style="fill:#dcdcdc;fill-opacity:1;stroke-width:0.0131836" /><path
         id="path8100"
         style="fill:#dcdcdc;fill-opacity:1;stroke-width:0.0131836"
         d="m 142.97965,140.19647 c -1.23126,0 -2.30812,0.65932 -2.89759,1.64397 0.96299,-0.46066 2.04146,-0.71875 3.18032,-0.71875 0.83895,0 1.64505,0.14042 2.39645,0.39829 -0.61683,-0.80434 -1.58708,-1.32351 -2.67918,-1.32351 z"
         sodipodi:nodetypes="scscs" /><path
         id="path8096"
         style="fill:#dcdcdc;fill-opacity:1;stroke-width:0.0131836"
         d="m 140.08206,155.15955 c 0.58947,0.98465 1.66634,1.64397 2.89759,1.64397 1.09231,0 2.06276,-0.51932 2.67958,-1.32391 -0.75151,0.25795 -1.55776,0.39868 -2.39685,0.39868 -1.13886,0 -2.21733,-0.25809 -3.18032,-0.71874 z"
         sodipodi:nodetypes="cscsc" /><path
         id="path9556-3"
         style="fill:#dcdcdc;fill-opacity:1;stroke-width:0.0131836"
         d="m 142.97954,169.76802 c -1.60599,0 -2.94969,1.12147 -3.29111,2.62399 0.99084,-0.49463 2.10824,-0.77354 3.29111,-0.77354 1.18286,0 2.30026,0.27891 3.2911,0.77354 -0.34141,-1.50252 -1.68514,-2.62399 -3.2911,-2.62399 z"
         sodipodi:nodetypes="scscs" /><path
         id="path9564"
         style="fill:#dcdcdc;fill-opacity:1;stroke-width:0.0131836"
         d="m 139.63363,124.58068 c 0.21383,1.65813 1.62951,2.93929 3.34591,2.93929 1.71639,0 3.13207,-1.28116 3.34591,-2.93929 -1.00433,0.51186 -2.14123,0.80094 -3.34591,0.80094 -1.20468,0 -2.34159,-0.28908 -3.34591,-0.80094 z"
         sodipodi:nodetypes="cscsc" /><path
         d="m 66.737637,137.08927 c 1.864162,0 3.374995,-1.51083 3.374995,-3.375 0,-1.86416 -1.510841,-3.375 -3.374995,-3.375 -1.864186,0 -3.375019,1.51084 -3.375019,3.375 0,1.86417 1.510849,3.375 3.375019,3.375 z"
         id="path12046"
         style="fill:#dcdcdc;fill-opacity:1;stroke-width:0.0131836" /><path
         d="m 66.737637,166.66072 c 1.864162,0 3.374995,-1.51084 3.374995,-3.375 0,-1.86417 -1.510841,-3.37501 -3.374995,-3.37501 -1.864186,0 -3.375019,1.51084 -3.375019,3.37501 0,1.86416 1.510849,3.375 3.375019,3.375 z"
         id="path12048"
         style="fill:#dcdcdc;fill-opacity:1;stroke-width:0.0131836" /><path
         style="stroke-width:0.0288212"
         d="m 64.253627,148.49999 c 0,-1.55349 1.213377,-2.76685 2.766844,-2.76685 1.527523,0 2.766835,1.21336 2.766835,2.76685 0,1.52753 -1.239312,2.76685 -2.766835,2.76685 -1.553466,0 -2.766844,-1.23932 -2.766844,-2.76685 z m 10.14509,0 c 0,4.07532 -3.302918,7.37824 -7.378246,7.37824 -4.075329,0 -7.378254,-3.30292 -7.378254,-7.37824 0,-4.07534 3.302924,-7.37825 7.378254,-7.37825 4.075327,0 7.378246,3.30291 7.378246,7.37825 z m -7.378246,-5.99484 c -3.311571,0 -5.994833,2.68327 -5.994833,5.99484 0,3.31156 2.683262,5.99483 5.994833,5.99483 3.311562,0 5.994824,-2.68327 5.994824,-5.99483 0,-3.31157 -2.683262,-5.99484 -5.994824,-5.99484 z"
         id="path12050" /><path
         d="m 63.970786,178.99677 c 0,-1.55349 1.213377,-2.76685 2.766843,-2.76685 1.527524,0 2.766835,1.21336 2.766835,2.76685 0,1.52752 -1.23931,2.76684 -2.766835,2.76684 -1.553466,0 -2.766843,-1.23931 -2.766843,-2.76684 z m 10.145089,0 c 0,4.07532 -3.302917,7.37824 -7.378246,7.37824 -4.075328,0 -7.378254,-3.30292 -7.378254,-7.37824 0,-4.07534 3.302926,-7.37827 7.378254,-7.37827 4.075328,0 7.378246,3.30292 7.378246,7.37827 z m -7.378246,-5.99484 c -3.31157,0 -5.994832,2.68326 -5.994832,5.99484 0,3.31155 2.683262,5.99481 5.994832,5.99481 3.311562,0 5.994824,-2.68326 5.994824,-5.99481 0,-3.31158 -2.683262,-5.99484 -5.994824,-5.99484 z"
         id="path12054"
         style="stroke-width:0.0288212" /><path
         id="path12056"
         style="fill:#dcdcdc;fill-opacity:1;stroke-width:0.0131836"
         d="m 66.737736,140.19647 c -1.23125,0 -2.308118,0.65932 -2.89759,1.64397 0.962995,-0.46066 2.04146,-0.71875 3.180324,-0.71875 0.838948,0 1.645046,0.14042 2.396456,0.39829 -0.616836,-0.80434 -1.587085,-1.32351 -2.67919,-1.32351 z"
         sodipodi:nodetypes="scscs" /><path
         id="path12058"
         style="fill:#dcdcdc;fill-opacity:1;stroke-width:0.0131836"
         d="m 63.840146,155.15955 c 0.58948,0.98465 1.666347,1.64397 2.89759,1.64397 1.092313,0 2.062769,-0.51932 2.679589,-1.32391 -0.751517,0.25795 -1.557769,0.39868 -2.396855,0.39868 -1.138864,0 -2.217329,-0.25809 -3.180324,-0.71874 z"
         sodipodi:nodetypes="cscsc" /><path
         id="path12060"
         style="fill:#dcdcdc;fill-opacity:1;stroke-width:0.0131836"
         d="m 66.737629,169.76802 c -1.605988,0 -2.949689,1.12147 -3.291107,2.62399 0.990842,-0.49463 2.108243,-0.77354 3.291107,-0.77354 1.182863,0 2.300265,0.27891 3.291107,0.77354 -0.341418,-1.50252 -1.685143,-2.62399 -3.291107,-2.62399 z"
         sodipodi:nodetypes="scscs" /><path
         id="path12062"
         style="fill:#dcdcdc;fill-opacity:1;stroke-width:0.0131836"
         d="m 63.391718,124.58068 c 0.213836,1.65813 1.629509,2.93929 3.345911,2.93929 1.716394,0 3.132074,-1.28116 3.345911,-2.93929 -1.004327,0.51186 -2.141232,0.80094 -3.345911,0.80094 -1.204679,0 -2.341583,-0.28908 -3.345911,-0.80094 z"
         sodipodi:nodetypes="cscsc" /><path
         style="stroke-width:0.0288212"
         d="m 63.970785,118.00338 c 0,-1.55349 1.213377,-2.76685 2.766844,-2.76685 1.527523,0 2.766835,1.21336 2.766835,2.76685 0,1.52752 -1.239311,2.76684 -2.766835,2.76684 -1.553466,0 -2.766844,-1.23932 -2.766844,-2.76684 z m 10.14509,0 c 0,4.07532 -3.302918,7.37824 -7.378246,7.37824 -4.075328,0 -7.378254,-3.30292 -7.378254,-7.37824 0,-4.07534 3.302925,-7.37825 7.378254,-7.37825 4.075327,0 7.378246,3.30291 7.378246,7.37825 z m -7.378246,-5.99484 c -3.311571,0 -5.994832,2.68327 -5.994832,5.99484 0,3.31155 2.683261,5.99482 5.994832,5.99482 3.311562,0 5.994824,-2.68327 5.994824,-5.99482 0,-3.31157 -2.683262,-5.99484 -5.994824,-5.99484 z"
         id="path12050-5" /></g></g></svg>
